<?xml version="1.0" standalone="no"?>
<!DOCTYPE svg PUBLIC "-//W3C//DTD SVG 20010904//EN"
 "http://www.w3.org/TR/2001/REC-SVG-20010904/DTD/svg10.dtd">
<svg version="1.0" xmlns="http://www.w3.org/2000/svg"
 width="772.000000pt" height="772.000000pt" viewBox="0 0 772.000000 772.000000"
 preserveAspectRatio="xMidYMid meet">
<metadata>
Created by potrace 1.11, written by Peter Selinger 2001-2013
</metadata>
<g transform="translate(0.000000,772.000000) scale(0.100000,-0.100000)"
fill="#000000" stroke="none">
<path d="M6919 7401 c-42 -43 -39 -81 17 -181 25 -45 44 -83 42 -85 -2 -1 -39
-21 -84 -43 l-81 -41 -47 84 c-50 90 -68 106 -122 108 -41 1 -70 -24 -84 -71
-8 -29 -4 -43 36 -117 24 -47 44 -87 44 -90 0 -3 -37 -23 -81 -46 -65 -32 -84
-38 -91 -27 -4 7 -23 39 -40 71 -17 32 -43 67 -56 78 -50 39 -124 14 -141 -48
-11 -40 -5 -60 45 -145 19 -33 32 -68 29 -77 -2 -9 -73 -84 -157 -167 -210
-208 -2465 -2312 -2502 -2335 -92 -56 -200 -45 -269 25 -83 86 -116 212 -87
337 21 93 103 246 209 385 119 157 131 179 131 240 0 42 -4 51 -38 83 -98 93
-297 94 -477 3 -87 -44 -167 -103 -264 -197 -156 -151 -260 -325 -444 -745
-125 -287 -149 -336 -206 -432 -89 -152 -198 -252 -366 -337 -74 -37 -150 -63
-597 -207 -313 -100 -506 -211 -693 -398 -158 -158 -248 -305 -297 -484 -32
-114 -31 -332 1 -457 61 -237 185 -465 394 -725 109 -135 467 -512 616 -647
456 -414 846 -559 1189 -444 155 52 283 138 411 280 256 280 379 509 576 1073
155 444 210 500 787 783 283 139 334 171 418 263 166 181 220 356 150 479 -58
101 -87 99 -312 -16 -212 -108 -280 -125 -387 -98 -165 43 -292 192 -295 346
l-1 67 1235 1365 c679 750 1249 1379 1265 1397 l31 34 234 9 c129 4 251 8 270
9 34 0 38 4 95 103 121 208 289 448 354 505 39 35 107 64 191 81 70 15 76 18
98 56 19 33 22 51 19 102 -2 52 -8 69 -33 100 -78 97 -193 114 -327 51 l-77
-37 -46 84 c-25 47 -57 94 -71 105 -37 29 -79 26 -114 -9z m-3525 -3322 l38
-11 -23 -25 c-13 -14 -158 -152 -322 -306 l-298 -280 128 -131 c349 -358 396
-405 403 -401 4 2 74 79 156 170 136 151 150 163 157 143 46 -127 133 -237
245 -312 109 -71 169 -90 292 -89 124 1 191 21 356 107 57 30 104 50 104 45 0
-36 -101 -182 -163 -236 -20 -17 -170 -99 -335 -182 -520 -263 -624 -344 -744
-577 -25 -49 -68 -147 -94 -218 -74 -196 -103 -215 -251 -167 -118 39 -249 54
-479 55 l-192 1 26 30 c50 60 63 121 41 198 -11 40 -84 120 -448 490 l-155
157 23 101 c82 367 255 681 521 949 218 221 452 374 695 455 132 45 239 56
319 34z"/>
<path d="M2195 3091 c-98 -45 -141 -158 -97 -254 25 -55 566 -615 617 -638
124 -57 255 31 255 171 0 28 -6 65 -14 83 -7 18 -142 166 -299 329 -293 303
-324 328 -395 328 -15 0 -45 -9 -67 -19z"/>
</g>
</svg>
