<svg xmlns="http://www.w3.org/2000/svg" xmlns:xlink="http://www.w3.org/1999/xlink" viewBox="0 0 48 48" version="1.1">
<g id="surface1">
<path style=" fill:#F44336;" d="M 23.023438 33.433594 C 24.25 32.097656 27.351563 31.175781 28.144531 30.359375 C 28.9375 29.539063 29.792969 28.21875 28.957031 27.351563 C 28.121094 26.488281 26.335938 29.585938 24.367188 27.546875 C 23.097656 26.226563 24.394531 24.128906 25.472656 22.804688 L 23.90625 21.179688 C 23.054688 21.835938 22.226563 22.148438 21.671875 21.570313 C 20.738281 20.605469 21.195313 19.328125 21.886719 18.316406 C 22.539063 17.359375 23.421875 16.664063 22.839844 16.058594 C 22.214844 15.410156 20.53125 15.316406 18.703125 17.210938 C 16.878906 19.105469 16.210938 22.691406 14.855469 24.097656 C 12.828125 26.195313 9.355469 25.460938 6.609375 28.308594 C 2.65625 32.40625 7.011719 36.914063 8.769531 38.730469 C 10.523438 40.550781 14.914063 45.496094 18.820313 41.453125 C 21.769531 38.394531 21.792969 34.773438 23.023438 33.433594 Z "></path>
<path style=" fill:#FFEBEE;" d="M 21.59375 22.65625 C 21.460938 22.621094 21.382813 22.609375 21.421875 22.636719 C 21.421875 22.632813 21.421875 22.632813 21.417969 22.632813 C 19.894531 22.449219 14.585938 24.878906 13.546875 30.789063 C 12.511719 36.699219 16.257813 35.507813 16.316406 35.445313 C 16.375 35.386719 19.191406 35.304688 20.039063 35.757813 C 20.046875 35.753906 20.050781 35.75 20.058594 35.75 C 20.070313 35.761719 20.089844 35.773438 20.089844 35.773438 C 20.574219 35.984375 20.910156 35.695313 21.058594 35.269531 C 21.203125 34.84375 21.695313 33.414063 22.3125 32.734375 C 23.136719 31.835938 24.519531 31.171875 25.742188 30.585938 C 26.40625 30.265625 27.234375 29.867188 27.453125 29.640625 C 27.898438 29.179688 28.21875 28.6875 28.296875 28.367188 C 28.210938 28.414063 28.125 28.464844 28.050781 28.507813 C 27.121094 29.042969 25.394531 30.035156 23.679688 28.261719 C 23.378906 27.953125 23.066406 27.488281 22.933594 26.855469 C 22.957031 26.753906 22.988281 26.664063 23.011719 26.566406 L 22.402344 27.199219 L 20.046875 24.757813 L 21.980469 22.753906 C 21.84375 22.71875 21.710938 22.683594 21.601563 22.65625 "></path>
<path style=" fill:#263238;" d="M 15.796875 35.984375 C 15.414063 36.382813 14.796875 36.382813 14.414063 35.984375 L 11.648438 33.117188 C 11.265625 32.722656 11.265625 32.082031 11.648438 31.6875 L 12.339844 30.96875 C 12.722656 30.574219 13.339844 30.574219 13.722656 30.96875 L 16.488281 33.835938 C 16.871094 34.230469 16.871094 34.871094 16.488281 35.269531 Z "></path>
<path style=" fill:#263238;" d="M 19.253906 32.402344 C 18.871094 32.800781 18.253906 32.800781 17.871094 32.402344 L 15.105469 29.539063 C 14.722656 29.140625 14.722656 28.5 15.105469 28.105469 C 15.488281 27.707031 16.105469 27.707031 16.488281 28.105469 L 19.253906 30.96875 C 19.636719 31.367188 19.636719 32.007813 19.253906 32.402344 Z "></path>
<path style=" fill:#5D4037;" d="M 21.328125 28.820313 L 18.5625 25.953125 L 36 9.660156 L 37.382813 11.09375 Z "></path>
<path style=" fill:#5D4037;" d="M 37.375 8.234375 L 36 9.660156 L 37.222656 11.273438 L 40.0625 11.183594 C 40.0625 11.183594 41.769531 8.140625 42.460938 7.804688 C 43.148438 7.46875 43.605469 7.507813 43.605469 7.507813 C 43.605469 7.507813 44.296875 6.792969 43.605469 6.074219 C 42.914063 5.359375 41.992188 5.898438 41.992188 5.898438 "></path>
<path style=" fill:#5D4037;" d="M 42.039063 7.941406 C 41.800781 8.074219 41.425781 7.933594 41.289063 7.691406 L 40.226563 5.742188 C 40.09375 5.503906 40.179688 5.199219 40.417969 5.0625 C 40.660156 4.929688 40.964844 5.015625 41.101563 5.253906 L 42.164063 7.203125 C 42.296875 7.445313 42.28125 7.808594 42.039063 7.941406 Z "></path>
<path style=" fill:#5D4037;" d="M 40.625 9.53125 C 40.382813 9.664063 40.078125 9.578125 39.945313 9.339844 L 38.480469 6.71875 C 38.347656 6.480469 38.433594 6.175781 38.671875 6.039063 C 38.914063 5.902344 39.21875 5.988281 39.355469 6.230469 L 40.816406 8.851563 C 40.953125 9.09375 40.867188 9.394531 40.625 9.53125 Z "></path>
<path style=" fill:#5D4037;" d="M 38.878906 10.507813 C 38.636719 10.640625 38.332031 10.554688 38.199219 10.3125 L 36.734375 7.695313 C 36.601563 7.453125 36.6875 7.148438 36.929688 7.015625 C 37.167969 6.878906 37.472656 6.964844 37.609375 7.207031 L 39.070313 9.824219 C 39.207031 10.066406 39.121094 10.371094 38.878906 10.507813 Z "></path>
</g>
</svg>